<svg xmlns="http://www.w3.org/2000/svg" viewBox="0 0 16 16"><defs><style>.cls-1{fill:#fff;}</style></defs><g id="Layer_5" data-name="Layer 5"><circle cx="8" cy="8" r="8"/><path class="cls-1" d="M11.62,8.65A.76.76,0,0,0,11.18,8c-.18-.1-.37-.19-.56-.28L9.17,7l-.1-.07.17-.1.93-.43a.15.15,0,0,1,.13,0,7.33,7.33,0,0,1,1,.57l.24.16a.4.4,0,0,1,0-.11c0-.33,0-.66,0-1s0-.62,0-.93c0-.12,0-.13-.13-.13h-1L8,6.1,5.92,5h-2c-.07,0-.1,0-.1.09s0,.22,0,.33c0,.45,0,.91,0,1.37a1.21,1.21,0,0,0,.46.89A3.5,3.5,0,0,0,5,8.11c.51.28,1,.54,1.57.8L6.61,9,6.55,9c-.37.19-.74.38-1.1.58a.19.19,0,0,1-.19,0l-1.33-.8,0,0v2.11c0,.08,0,.11.1.11l.7,0a3.59,3.59,0,0,0,1.13-.11,7.25,7.25,0,0,0,.78-.28c.34-.13.68-.28,1-.44a.21.21,0,0,1,.19,0l.79.32L9.92,11H10a5.28,5.28,0,0,0,.94-.66,2.79,2.79,0,0,0,.4-.44A2,2,0,0,0,11.62,8.65ZM7.51,10h0l0-.08h0S7.52,10,7.51,10Zm3-1c-.19.13-.38.26-.57.37s-.25.11-.38.17a.72.72,0,0,1-.59,0A3,3,0,0,1,8,8.9a2.58,2.58,0,0,1-.41-.57,1.33,1.33,0,0,0-.46-.42,7.48,7.48,0,0,0-1-.49c-.3-.13-.59-.28-.88-.42a.33.33,0,0,1-.1-.06v0l.36-.14c.24-.09.48-.17.71-.27a.63.63,0,0,1,.52,0A3.64,3.64,0,0,1,7.62,7a3.59,3.59,0,0,1,.58.59,2.07,2.07,0,0,0,.87.68c.48.21,1,.39,1.46.57l.1,0Z"/></g></svg>