<svg xmlns="http://www.w3.org/2000/svg" viewBox="0 0 48 48"><defs><style>.cls-1{fill:#fff;}</style></defs><g id="Layer_5" data-name="Layer 5"><circle cx="24" cy="24" r="24"/><path class="cls-1" d="M34.85,26a2.27,2.27,0,0,0-1.31-2c-.55-.28-1.12-.55-1.68-.82L27.52,21a2.85,2.85,0,0,1-.32-.21c.2-.11.35-.21.51-.29.93-.44,1.87-.86,2.79-1.3a.39.39,0,0,1,.39,0A21.33,21.33,0,0,1,34,20.94c.21.15.42.3.7.48,0-.16,0-.24,0-.33,0-1,0-2,0-3s0-1.86,0-2.79c0-.37,0-.39-.38-.39H31.28L23.9,18.31,17.75,15H17.3l-5.52,0c-.21,0-.29.07-.28.29s0,.64,0,1c0,1.37.06,2.74.13,4.11A3.61,3.61,0,0,0,13,23a11.07,11.07,0,0,0,1.89,1.29c1.55.84,3.14,1.62,4.72,2.42l.22.13a1.73,1.73,0,0,1-.19.15c-1.1.58-2.21,1.15-3.31,1.74a.52.52,0,0,1-.56,0l-4-2.42-.12-.05v1c0,1.77,0,3.54,0,5.31,0,.24.08.32.31.33.7,0,1.4.08,2.1.08a11,11,0,0,0,3.38-.32c.79-.26,1.58-.53,2.34-.84,1-.41,2-.85,3-1.32a.64.64,0,0,1,.59,0c.8.32,1.58.66,2.37,1l4,1.51a.39.39,0,0,0,.3,0,15.41,15.41,0,0,0,2.81-2,7.75,7.75,0,0,0,1.19-1.31A5.93,5.93,0,0,0,34.85,26ZM22.54,30.09s-.11,0-.16,0l.07-.25.09,0A1.62,1.62,0,0,1,22.54,30.09Zm9-3.14c-.57.38-1.14.77-1.73,1.11a11.16,11.16,0,0,1-1.12.49,2.23,2.23,0,0,1-1.79-.08A8.93,8.93,0,0,1,24,26.7,8,8,0,0,1,22.79,25a3.94,3.94,0,0,0-1.36-1.27,22.51,22.51,0,0,0-3.1-1.47c-.9-.38-1.77-.83-2.65-1.25a2.83,2.83,0,0,1-.28-.2v-.08l1.08-.42c.72-.27,1.44-.52,2.15-.8a1.92,1.92,0,0,1,1.54,0A10.46,10.46,0,0,1,22.87,21a10.23,10.23,0,0,1,1.73,1.75,6.34,6.34,0,0,0,2.61,2.06c1.45.61,2.93,1.15,4.39,1.71l.28.11C31.73,26.74,31.63,26.86,31.51,27Z"/></g></svg>